<svg width="137" height="150" viewBox="0 0 137 150" fill="none" xmlns="http://www.w3.org/2000/svg">
<path fill-rule="evenodd" clip-rule="evenodd" d="M15.5592 31C6.96679 31 0 37.9731 0 46.5732C0 55.1733 6.96679 62.1464 15.5592 62.1464C24.1515 62.1464 31.1183 55.1733 31.1183 46.5732C31.1183 37.9876 24.1515 31 15.5592 31Z" fill="#6AAB26"/>
<path fill-rule="evenodd" clip-rule="evenodd" d="M15.5592 31C10.8276 31 6.58943 33.121 3.73014 36.4622C3.57049 37.3629 3.4834 38.2927 3.4834 39.2515C3.4834 47.8516 10.4502 54.8247 19.0426 54.8247C23.7742 54.8247 28.0123 52.7037 30.8716 49.3624C31.0312 48.4618 31.1183 47.532 31.1183 46.5732C31.1183 37.9876 24.1515 31 15.5592 31Z" fill="#A3F051"/>
<path fill-rule="evenodd" clip-rule="evenodd" d="M14.906 31.0145C14.906 31.1889 14.8915 31.3632 14.8915 31.5375C14.8915 40.1376 21.8583 47.1107 30.4507 47.1107C30.6684 47.1107 30.8861 47.1107 31.1038 47.0962C31.1038 46.9219 31.1183 46.7475 31.1183 46.5732C31.1183 46.1374 31.1038 45.7161 31.0603 45.2948C30.8571 45.3093 30.6539 45.3093 30.4507 45.3093C22.8452 45.3093 16.6913 39.1353 16.6913 31.5375C16.6913 31.3632 16.6913 31.2034 16.7058 31.0436C16.3284 31.0145 15.9365 31 15.5592 31C15.3269 31 15.1237 31.0145 14.906 31.0145ZM0 47.2269C0.0290283 47.8371 0.0870866 48.4327 0.174171 49.0283C0.682166 48.9702 1.20467 48.9411 1.72718 48.9411C9.1439 48.9411 15.1963 54.8247 15.4721 62.1754C15.5011 62.1754 15.5156 62.1754 15.5446 62.1754C16.1252 62.1754 16.7058 62.1464 17.2718 62.0738C16.938 53.7642 10.1018 47.1252 1.72718 47.1252C1.14662 47.1252 0.566051 47.1543 0 47.2269Z" fill="white"/>
<path fill-rule="evenodd" clip-rule="evenodd" d="M15.5592 84C6.96679 84 0 90.9731 0 99.5732C0 108.173 6.96679 115.146 15.5592 115.146C24.1515 115.146 31.1183 108.173 31.1183 99.5732C31.1183 90.9876 24.1515 84 15.5592 84Z" fill="#6AAB26"/>
<path fill-rule="evenodd" clip-rule="evenodd" d="M15.5592 84C10.8276 84 6.58943 86.121 3.73014 89.4622C3.57049 90.3629 3.4834 91.2927 3.4834 92.2515C3.4834 100.852 10.4502 107.825 19.0426 107.825C23.7742 107.825 28.0123 105.704 30.8716 102.362C31.0312 101.462 31.1183 100.532 31.1183 99.5732C31.1183 90.9876 24.1515 84 15.5592 84Z" fill="#A3F051"/>
<path fill-rule="evenodd" clip-rule="evenodd" d="M14.906 84.0145C14.906 84.1889 14.8915 84.3632 14.8915 84.5375C14.8915 93.1376 21.8583 100.111 30.4507 100.111C30.6684 100.111 30.8861 100.111 31.1038 100.096C31.1038 99.9219 31.1183 99.7475 31.1183 99.5732C31.1183 99.1374 31.1038 98.7161 31.0603 98.2948C30.8571 98.3093 30.6539 98.3093 30.4507 98.3093C22.8452 98.3093 16.6913 92.1353 16.6913 84.5375C16.6913 84.3632 16.6913 84.2034 16.7058 84.0436C16.3284 84.0145 15.9365 84 15.5592 84C15.3269 84 15.1237 84.0145 14.906 84.0145ZM0 100.227C0.0290283 100.837 0.0870866 101.433 0.174171 102.028C0.682166 101.97 1.20467 101.941 1.72718 101.941C9.1439 101.941 15.1963 107.825 15.4721 115.175C15.5011 115.175 15.5156 115.175 15.5446 115.175C16.1252 115.175 16.7058 115.146 17.2718 115.074C16.938 106.764 10.1018 100.125 1.72718 100.125C1.14662 100.125 0.566051 100.154 0 100.227Z" fill="white"/>
<path fill-rule="evenodd" clip-rule="evenodd" d="M68.5592 0C59.9668 0 53 6.97308 53 15.5732C53 24.1733 59.9668 31.1464 68.5592 31.1464C77.1515 31.1464 84.1183 24.1733 84.1183 15.5732C84.1183 6.98761 77.1515 0 68.5592 0Z" fill="#6AAB26"/>
<path fill-rule="evenodd" clip-rule="evenodd" d="M68.5592 0C63.8276 0 59.5894 2.12098 56.7301 5.46225C56.5705 6.36294 56.4834 7.29268 56.4834 8.25148C56.4834 16.8516 63.4502 23.8247 72.0426 23.8247C76.7742 23.8247 81.0123 21.7037 83.8716 18.3624C84.0312 17.4618 84.1183 16.532 84.1183 15.5732C84.1183 6.98761 77.1515 0 68.5592 0Z" fill="#A3F051"/>
<path fill-rule="evenodd" clip-rule="evenodd" d="M67.906 0.0145326C67.906 0.188859 67.8915 0.363183 67.8915 0.53751C67.8915 9.13763 74.8583 16.1107 83.4507 16.1107C83.6684 16.1107 83.8861 16.1107 84.1038 16.0962C84.1038 15.9219 84.1183 15.7475 84.1183 15.5732C84.1183 15.1374 84.1038 14.7161 84.0603 14.2948C83.8571 14.3093 83.6539 14.3093 83.4507 14.3093C75.8452 14.3093 69.6913 8.13525 69.6913 0.53751C69.6913 0.363183 69.6913 0.203388 69.7058 0.0435888C69.3284 0.0145343 68.9365 0 68.5592 0C68.3269 0 68.1237 0.0145326 67.906 0.0145326ZM53 16.2269C53.029 16.8371 53.0871 17.4327 53.1742 18.0283C53.6822 17.9702 54.2047 17.9411 54.7272 17.9411C62.1439 17.9411 68.1963 23.8247 68.4721 31.1754C68.5011 31.1754 68.5156 31.1754 68.5446 31.1754C69.1252 31.1754 69.7058 31.1464 70.2718 31.0738C69.938 22.7642 63.1018 16.1252 54.7272 16.1252C54.1466 16.1252 53.5661 16.1543 53 16.2269Z" fill="white"/>
<path fill-rule="evenodd" clip-rule="evenodd" d="M120.559 31C111.967 31 105 37.9731 105 46.5732C105 55.1733 111.967 62.1464 120.559 62.1464C129.152 62.1464 136.118 55.1733 136.118 46.5732C136.118 37.9876 129.152 31 120.559 31Z" fill="#6AAB26"/>
<path fill-rule="evenodd" clip-rule="evenodd" d="M120.559 31C115.828 31 111.589 33.121 108.73 36.4622C108.57 37.3629 108.483 38.2927 108.483 39.2515C108.483 47.8516 115.45 54.8247 124.043 54.8247C128.774 54.8247 133.012 52.7037 135.872 49.3624C136.031 48.4618 136.118 47.532 136.118 46.5732C136.118 37.9876 129.152 31 120.559 31Z" fill="#A3F051"/>
<path fill-rule="evenodd" clip-rule="evenodd" d="M119.906 31.0145C119.906 31.1889 119.892 31.3632 119.892 31.5375C119.892 40.1376 126.858 47.1107 135.451 47.1107C135.668 47.1107 135.886 47.1107 136.104 47.0962C136.104 46.9219 136.118 46.7475 136.118 46.5732C136.118 46.1374 136.104 45.7161 136.06 45.2948C135.857 45.3093 135.654 45.3093 135.451 45.3093C127.845 45.3093 121.691 39.1353 121.691 31.5375C121.691 31.3632 121.691 31.2034 121.706 31.0436C121.328 31.0145 120.937 31 120.559 31C120.327 31 120.124 31.0145 119.906 31.0145ZM105 47.2269C105.029 47.8371 105.087 48.4327 105.174 49.0283C105.682 48.9702 106.205 48.9411 106.727 48.9411C114.144 48.9411 120.196 54.8247 120.472 62.1754C120.501 62.1754 120.516 62.1754 120.545 62.1754C121.125 62.1754 121.706 62.1464 122.272 62.0738C121.938 53.7642 115.102 47.1252 106.727 47.1252C106.147 47.1252 105.566 47.1543 105 47.2269Z" fill="white"/>
<path fill-rule="evenodd" clip-rule="evenodd" d="M120.559 84C111.967 84 105 90.9731 105 99.5732C105 108.173 111.967 115.146 120.559 115.146C129.152 115.146 136.118 108.173 136.118 99.5732C136.118 90.9876 129.152 84 120.559 84Z" fill="#6AAB26"/>
<path fill-rule="evenodd" clip-rule="evenodd" d="M120.559 84C115.828 84 111.589 86.121 108.73 89.4622C108.57 90.3629 108.483 91.2927 108.483 92.2515C108.483 100.852 115.45 107.825 124.043 107.825C128.774 107.825 133.012 105.704 135.872 102.362C136.031 101.462 136.118 100.532 136.118 99.5732C136.118 90.9876 129.152 84 120.559 84Z" fill="#A3F051"/>
<path fill-rule="evenodd" clip-rule="evenodd" d="M119.906 84.0145C119.906 84.1889 119.892 84.3632 119.892 84.5375C119.892 93.1376 126.858 100.111 135.451 100.111C135.668 100.111 135.886 100.111 136.104 100.096C136.104 99.9219 136.118 99.7475 136.118 99.5732C136.118 99.1374 136.104 98.7161 136.06 98.2948C135.857 98.3093 135.654 98.3093 135.451 98.3093C127.845 98.3093 121.691 92.1353 121.691 84.5375C121.691 84.3632 121.691 84.2034 121.706 84.0436C121.328 84.0145 120.937 84 120.559 84C120.327 84 120.124 84.0145 119.906 84.0145ZM105 100.227C105.029 100.837 105.087 101.433 105.174 102.028C105.682 101.97 106.205 101.941 106.727 101.941C114.144 101.941 120.196 107.825 120.472 115.175C120.501 115.175 120.516 115.175 120.545 115.175C121.125 115.175 121.706 115.146 122.272 115.074C121.938 106.764 115.102 100.125 106.727 100.125C106.147 100.125 105.566 100.154 105 100.227Z" fill="white"/>
<path fill-rule="evenodd" clip-rule="evenodd" d="M68.5592 118C59.9668 118 53 124.973 53 133.573C53 142.173 59.9668 149.146 68.5592 149.146C77.1515 149.146 84.1183 142.173 84.1183 133.573C84.1183 124.988 77.1515 118 68.5592 118Z" fill="#6AAB26"/>
<path fill-rule="evenodd" clip-rule="evenodd" d="M68.5592 118C63.8276 118 59.5894 120.121 56.7301 123.462C56.5705 124.363 56.4834 125.293 56.4834 126.251C56.4834 134.852 63.4502 141.825 72.0426 141.825C76.7742 141.825 81.0123 139.704 83.8716 136.362C84.0312 135.462 84.1183 134.532 84.1183 133.573C84.1183 124.988 77.1515 118 68.5592 118Z" fill="#A3F051"/>
<path fill-rule="evenodd" clip-rule="evenodd" d="M67.906 118.015C67.906 118.189 67.8915 118.363 67.8915 118.538C67.8915 127.138 74.8583 134.111 83.4507 134.111C83.6684 134.111 83.8861 134.111 84.1038 134.096C84.1038 133.922 84.1183 133.748 84.1183 133.573C84.1183 133.137 84.1038 132.716 84.0603 132.295C83.8571 132.309 83.6539 132.309 83.4507 132.309C75.8452 132.309 69.6913 126.135 69.6913 118.538C69.6913 118.363 69.6913 118.203 69.7058 118.044C69.3284 118.015 68.9365 118 68.5592 118C68.3269 118 68.1237 118.015 67.906 118.015ZM53 134.227C53.029 134.837 53.0871 135.433 53.1742 136.028C53.6822 135.97 54.2047 135.941 54.7272 135.941C62.1439 135.941 68.1963 141.825 68.4721 149.175C68.5011 149.175 68.5156 149.175 68.5446 149.175C69.1252 149.175 69.7058 149.146 70.2718 149.074C69.938 140.764 63.1018 134.125 54.7272 134.125C54.1466 134.125 53.5661 134.154 53 134.227Z" fill="white"/>
</svg>
