<svg width="375" height="585" viewBox="0 0 375 585" fill="none" xmlns="http://www.w3.org/2000/svg">
<rect x="277.606" width="124.967" height="584.665" fill="url(#paint0_linear_3736_30431)"/>
<rect x="266.448" width="11.1577" height="562.349" fill="url(#paint1_linear_3736_30431)"/>
<rect x="196.154" width="11.1577" height="562.349" fill="url(#paint2_linear_3736_30431)"/>
<rect x="19.8623" y="7.81042" width="11.1577" height="562.349" fill="url(#paint3_linear_3736_30431)"/>
<path fill-rule="evenodd" clip-rule="evenodd" d="M330.977 265.406C324.302 265.406 318.89 268.937 318.89 273.291C318.89 277.644 324.302 281.175 330.977 281.175C337.652 281.175 343.064 277.644 343.064 273.291C343.075 268.937 337.663 265.406 330.977 265.406Z" fill="#1A2C6B"/>
<path fill-rule="evenodd" clip-rule="evenodd" d="M335.295 252.165C328.62 252.165 323.208 257.579 323.208 264.256C323.208 270.933 328.62 276.347 335.295 276.347C341.97 276.347 347.382 270.933 347.382 264.256C347.382 257.59 341.97 252.165 335.295 252.165Z" fill="#6AAB26"/>
<path fill-rule="evenodd" clip-rule="evenodd" d="M335.295 252.165C331.619 252.165 328.327 253.811 326.106 256.406C325.982 257.105 325.914 257.827 325.914 258.571C325.914 265.248 331.326 270.662 338.001 270.662C341.677 270.662 344.969 269.016 347.19 266.422C347.314 265.722 347.382 265 347.382 264.256C347.382 257.59 341.97 252.165 335.295 252.165Z" fill="#A3F051"/>
<path fill-rule="evenodd" clip-rule="evenodd" d="M334.788 252.176C334.788 252.311 334.776 252.447 334.776 252.582C334.776 259.259 340.189 264.673 346.863 264.673C347.033 264.673 347.202 264.673 347.371 264.662C347.371 264.527 347.382 264.391 347.382 264.256C347.382 263.918 347.371 263.59 347.337 263.263C347.179 263.275 347.021 263.275 346.863 263.275C340.955 263.275 336.175 258.481 336.175 252.582C336.175 252.447 336.175 252.323 336.186 252.198C335.893 252.176 335.588 252.165 335.295 252.165C335.115 252.165 334.957 252.176 334.788 252.176ZM323.208 264.763C323.231 265.237 323.276 265.7 323.343 266.162C323.738 266.117 324.144 266.094 324.55 266.094C330.311 266.094 335.013 270.662 335.227 276.37C335.25 276.37 335.261 276.37 335.284 276.37C335.735 276.37 336.186 276.347 336.626 276.291C336.366 269.839 331.056 264.685 324.55 264.685C324.099 264.685 323.648 264.707 323.208 264.763Z" fill="white"/>
<path fill-rule="evenodd" clip-rule="evenodd" d="M221.242 252.494C216.014 252.494 211.775 255.259 211.775 258.669C211.775 262.078 216.014 264.844 221.242 264.844C226.47 264.844 230.709 262.078 230.709 258.669C230.717 255.259 226.479 252.494 221.242 252.494Z" fill="#1A2C6B"/>
<path fill-rule="evenodd" clip-rule="evenodd" d="M224.624 242.123C219.397 242.123 215.158 246.363 215.158 251.593C215.158 256.822 219.397 261.063 224.624 261.063C229.852 261.063 234.091 256.822 234.091 251.593C234.091 246.372 229.852 242.123 224.624 242.123Z" fill="#6AAB26"/>
<path fill-rule="evenodd" clip-rule="evenodd" d="M224.625 242.123C221.746 242.123 219.167 243.412 217.427 245.444C217.33 245.992 217.277 246.557 217.277 247.14C217.277 252.37 221.516 256.61 226.744 256.61C229.623 256.61 232.201 255.32 233.941 253.289C234.038 252.741 234.091 252.176 234.091 251.593C234.091 246.372 229.852 242.123 224.625 242.123Z" fill="#A3F051"/>
<path fill-rule="evenodd" clip-rule="evenodd" d="M224.227 242.131C224.227 242.237 224.218 242.343 224.218 242.449C224.218 247.679 228.457 251.919 233.685 251.919C233.817 251.919 233.95 251.919 234.082 251.911C234.082 251.805 234.091 251.699 234.091 251.593C234.091 251.328 234.082 251.071 234.056 250.815C233.932 250.824 233.808 250.824 233.685 250.824C229.057 250.824 225.313 247.07 225.313 242.449C225.313 242.343 225.313 242.246 225.322 242.149C225.092 242.131 224.854 242.123 224.624 242.123C224.483 242.123 224.359 242.131 224.227 242.131ZM215.158 251.99C215.175 252.361 215.211 252.723 215.264 253.085C215.573 253.05 215.891 253.032 216.209 253.032C220.721 253.032 224.404 256.61 224.571 261.08C224.589 261.08 224.598 261.08 224.616 261.08C224.969 261.08 225.322 261.063 225.666 261.018C225.463 255.965 221.304 251.928 216.209 251.928C215.855 251.928 215.502 251.946 215.158 251.99Z" fill="white"/>
<path fill-rule="evenodd" clip-rule="evenodd" d="M308.661 341.279C301.986 341.279 296.574 344.809 296.574 349.163C296.574 353.517 301.986 357.047 308.661 357.047C315.336 357.047 320.748 353.517 320.748 349.163C320.76 344.809 315.347 341.279 308.661 341.279Z" fill="#1A2C6B"/>
<path fill-rule="evenodd" clip-rule="evenodd" d="M312.98 328.037C306.305 328.037 300.893 333.451 300.893 340.128C300.893 346.806 306.305 352.22 312.98 352.22C319.655 352.22 325.067 346.806 325.067 340.128C325.067 333.462 319.655 328.037 312.98 328.037Z" fill="#6AAB26"/>
<path fill-rule="evenodd" clip-rule="evenodd" d="M312.98 328.037C309.304 328.037 306.012 329.684 303.79 332.278C303.666 332.977 303.599 333.699 303.599 334.444C303.599 341.121 309.011 346.535 315.686 346.535C319.361 346.535 322.654 344.888 324.875 342.294C324.999 341.595 325.067 340.873 325.067 340.128C325.067 333.462 319.655 328.037 312.98 328.037Z" fill="#A3F051"/>
<path fill-rule="evenodd" clip-rule="evenodd" d="M312.472 328.048C312.472 328.184 312.461 328.319 312.461 328.455C312.461 335.132 317.873 340.546 324.548 340.546C324.717 340.546 324.886 340.546 325.055 340.535C325.055 340.399 325.067 340.264 325.067 340.128C325.067 339.79 325.055 339.463 325.022 339.136C324.864 339.147 324.706 339.147 324.548 339.147C318.64 339.147 313.859 334.354 313.859 328.455C313.859 328.319 313.859 328.195 313.87 328.071C313.577 328.048 313.273 328.037 312.98 328.037C312.799 328.037 312.641 328.048 312.472 328.048ZM300.893 340.636C300.915 341.11 300.96 341.572 301.028 342.035C301.423 341.99 301.828 341.967 302.234 341.967C307.996 341.967 312.698 346.535 312.912 352.242C312.935 352.242 312.946 352.242 312.968 352.242C313.419 352.242 313.87 352.22 314.31 352.163C314.051 345.712 308.74 340.557 302.234 340.557C301.783 340.557 301.332 340.58 300.893 340.636Z" fill="white"/>
<rect x="-1.3374" y="138.356" width="249.933" height="4.46309" fill="#182667"/>
<rect x="-1.3374" y="211.997" width="271.133" height="4.46309" fill="white"/>
<rect x="238.554" y="140.778" width="10.3446" height="84.7987" rx="5.17231" transform="rotate(-20 238.554 140.778)" fill="#182667"/>
<path d="M234.091 138.356L260.311 211.997" stroke="#182667"/>
<path d="M227.396 138.356L253.617 211.997" stroke="#182667"/>
<path d="M220.702 138.356L246.922 211.997" stroke="#182667"/>
<path d="M214.007 138.356L240.227 211.997" stroke="#182667"/>
<path d="M207.312 138.356L233.533 211.997" stroke="#182667"/>
<path d="M200.618 138.356L226.838 211.997" stroke="#182667"/>
<path d="M193.923 138.356L220.144 211.997" stroke="#182667"/>
<path d="M187.229 138.356L213.449 211.997" stroke="#182667"/>
<path d="M180.534 138.356L206.754 211.997" stroke="#182667"/>
<path d="M173.839 138.356L200.06 211.997" stroke="#182667"/>
<path d="M167.145 138.356L193.365 211.997" stroke="#182667"/>
<path d="M160.45 138.356L186.67 211.997" stroke="#182667"/>
<path d="M153.755 138.356L179.976 211.997" stroke="#182667"/>
<path d="M147.061 138.356L173.281 211.997" stroke="#182667"/>
<path d="M140.366 138.356L166.586 211.997" stroke="#182667"/>
<path d="M133.671 138.356L159.892 211.997" stroke="#182667"/>
<path d="M126.977 138.356L153.197 211.997" stroke="#182667"/>
<path d="M120.282 138.356L146.503 211.997" stroke="#182667"/>
<path d="M113.587 138.356L139.808 211.997" stroke="#182667"/>
<path d="M106.893 138.356L133.113 211.997" stroke="#182667"/>
<path d="M100.198 138.356L126.419 211.997" stroke="#182667"/>
<path d="M93.5034 138.356L119.724 211.997" stroke="#182667"/>
<path d="M86.8086 138.356L113.029 211.997" stroke="#182667"/>
<path d="M80.1143 138.356L106.335 211.997" stroke="#182667"/>
<path d="M73.4194 138.356L99.6401 211.997" stroke="#182667"/>
<path d="M66.7251 138.356L92.9458 211.997" stroke="#182667"/>
<path d="M60.0303 138.356L86.2509 211.997" stroke="#182667"/>
<path d="M53.3354 138.356L79.5561 211.997" stroke="#182667"/>
<path d="M46.6411 138.356L72.8618 211.997" stroke="#182667"/>
<path d="M39.9463 138.356L66.167 211.997" stroke="#182667"/>
<path d="M33.252 138.356L59.4726 211.997" stroke="#182667"/>
<path d="M26.5571 138.356L52.7778 211.997" stroke="#182667"/>
<path d="M19.8623 138.356L46.083 211.997" stroke="#182667"/>
<path d="M13.168 138.356L39.3886 211.997" stroke="#182667"/>
<path d="M6.47314 138.356L32.6938 211.997" stroke="#182667"/>
<path d="M-0.22168 138.356L25.999 211.997" stroke="#182667"/>
<path d="M-6.91602 138.356L19.3046 211.997" stroke="#182667"/>
<path d="M-13.6108 138.356L12.6098 211.997" stroke="#182667"/>
<path d="M-20.3052 138.356L5.91549 211.997" stroke="#182667"/>
<path d="M244.133 147.282H-2.45312" stroke="#182667"/>
<path d="M244.133 153.977H-2.45312" stroke="#182667"/>
<path d="M249.712 160.671H-2.45312" stroke="#182667"/>
<path d="M251.943 167.366H-2.45312" stroke="#182667"/>
<path d="M251.943 174.061H-2.45312" stroke="#182667"/>
<path d="M257.522 180.755H-2.45312" stroke="#182667"/>
<path d="M259.753 187.45H-2.45312" stroke="#182667"/>
<path d="M259.753 194.145H-2.45312" stroke="#182667"/>
<path d="M263.101 200.839H-2.45312" stroke="#182667"/>
<path d="M264.217 207.534H-2.45312" stroke="#182667"/>
<defs>
<linearGradient id="paint0_linear_3736_30431" x1="340.089" y1="0" x2="340.089" y2="584.665" gradientUnits="userSpaceOnUse">
<stop stop-color="#5AE099"/>
<stop offset="1" stop-color="#5AE099" stop-opacity="0"/>
</linearGradient>
<linearGradient id="paint1_linear_3736_30431" x1="272.027" y1="0" x2="272.027" y2="562.349" gradientUnits="userSpaceOnUse">
<stop stop-color="white"/>
<stop offset="1" stop-color="white" stop-opacity="0"/>
</linearGradient>
<linearGradient id="paint2_linear_3736_30431" x1="201.733" y1="0" x2="201.733" y2="562.349" gradientUnits="userSpaceOnUse">
<stop stop-color="white"/>
<stop offset="1" stop-color="white" stop-opacity="0"/>
</linearGradient>
<linearGradient id="paint3_linear_3736_30431" x1="25.4412" y1="7.81042" x2="25.4412" y2="570.16" gradientUnits="userSpaceOnUse">
<stop stop-color="white"/>
<stop offset="1" stop-color="white" stop-opacity="0"/>
</linearGradient>
</defs>
</svg>
